<svg xmlns="http://www.w3.org/2000/svg" viewBox="0 0 512 512">
  <defs>
    <linearGradient id="bg" x1="0" y1="0" x2="0" y2="1">
      <stop offset="0" stop-color="#f0f1f4" />
      <stop offset="1" stop-color="#d8dce2" />
    </linearGradient>
    <radialGradient id="core" cx="50%" cy="45%" r="60%">
      <stop offset="0" stop-color="#fdfdfd" />
      <stop offset="1" stop-color="#c7ccd4" />
    </radialGradient>
  </defs>
  <rect x="24" y="24" width="464" height="464" rx="102" fill="url(#bg)" />
  <g fill="#8a909a" transform="translate(256 256)">
    <rect x="-16" y="-198" width="32" height="86" rx="14" />
    <rect x="-16" y="112" width="32" height="86" rx="14" />
    <rect x="-198" y="-16" width="86" height="32" rx="14" />
    <rect x="112" y="-16" width="86" height="32" rx="14" />
    <rect x="-16" y="-198" width="32" height="86" rx="14" transform="rotate(45)" />
    <rect x="-16" y="-198" width="32" height="86" rx="14" transform="rotate(90)" />
    <rect x="-16" y="-198" width="32" height="86" rx="14" transform="rotate(135)" />
    <rect x="-16" y="-198" width="32" height="86" rx="14" transform="rotate(225)" />
    <rect x="-16" y="-198" width="32" height="86" rx="14" transform="rotate(270)" />
    <rect x="-16" y="-198" width="32" height="86" rx="14" transform="rotate(315)" />
  </g>
  <circle cx="256" cy="256" r="122" fill="#a5acb6" />
  <circle cx="256" cy="256" r="84" fill="url(#core)" />
  <circle cx="256" cy="256" r="36" fill="#838b97" />
</svg>
